<svg width="60" height="40" viewBox="0 0 54 36" fill="none" xmlns="http://www.w3.org/2000/svg"><g clip-path="url(#flag-in)"><path d="M0 0H54V12H0V0Z" fill="#FB923C"></path> <path d="M0 12H54V24H0V12Z" fill="#F5F5F5"></path> <path d="M0 24H54V36H0V24Z" fill="#22C55E"></path> <path fill-rule="evenodd" clip-rule="evenodd" d="M27 21.5714C28.9724 21.5714 30.5714 19.9724 30.5714 18C30.5714 16.0276 28.9724 14.4286 27 14.4286C25.0276 14.4286 23.4286 16.0276 23.4286 18C23.4286 19.9724 25.0276 21.5714 27 21.5714ZM27 23C29.7614 23 32 20.7614 32 18C32 15.2386 29.7614 13 27 13C24.2386 13 22 15.2386 22 18C22 20.7614 24.2386 23 27 23Z" fill="#3B82F6"></path> <path d="M28.7857 18.0001C28.7857 18.9863 27.9862 19.7858 27 19.7858C26.0138 19.7858 25.2143 18.9863 25.2143 18.0001C25.2143 17.0138 26.0138 16.2144 27 16.2144C27.9862 16.2144 28.7857 17.0138 28.7857 18.0001Z" fill="#3B82F6"></path></g><defs><clipPath id="flag-in"><rect width="54" height="36" rx="8px" fill="white" /></clipPath></defs></svg>